<svg xmlns="http://www.w3.org/2000/svg" width="13.787" height="13.787" viewBox="0 0 13.787 13.787"><defs><style>.a{fill:#202529;}.b{fill:#fff;}</style></defs><g transform="translate(-370.701 -130.743)"><path class="a" d="M377.594,130.743a6.894,6.894,0,1,0,6.894,6.893A6.9,6.9,0,0,0,377.594,130.743Z"/><path class="b" d="M379.025,133.947h-2.861a.755.755,0,0,0-.753.753v5.873a.755.755,0,0,0,.753.753h2.861a.755.755,0,0,0,.753-.753V134.7A.755.755,0,0,0,379.025,133.947Zm-1.453,6.98a.377.377,0,1,1,0-.753.372.372,0,0,1,.376.376A.378.378,0,0,1,377.572,140.927Zm1.6-1.032h-3.163v-4.969h3.163Z"/></g></svg>