<svg xmlns="http://www.w3.org/2000/svg" width="13.787" height="13.787" viewBox="0 0 13.787 13.787"><defs><style>.a{fill:#202529;}.b{fill:#fff;}</style></defs><g transform="translate(-269.844 -176.502)"><path class="a" d="M276.738,176.5a6.894,6.894,0,1,0,6.893,6.893A6.9,6.9,0,0,0,276.738,176.5Z"/><path class="b" d="M273.737,181.031a.535.535,0,0,0-.2.04l3.044,2.711a.227.227,0,0,0,.329,0l3.038-2.711a.534.534,0,0,0-.2-.04Zm-.54.469a.49.49,0,0,0-.006.077v3.637a.539.539,0,0,0,.043.21l2.1-2.017L273.2,181.5Zm7.082,0-2.132,1.9,2.1,2.018a.55.55,0,0,0,.039-.208v-3.637a.645.645,0,0,0-.005-.077Zm-2.541,2.271-.469.42a.8.8,0,0,1-1.057,0l-.469-.418-2.069,1.984c.02,0,.042,0,.063,0h6a.569.569,0,0,0,.059,0Z"/></g></svg>