<svg xmlns="http://www.w3.org/2000/svg" width="13.787" height="13.788" viewBox="0 0 13.787 13.788"><defs><style>.a{fill:#202529;}.b{fill:#fff;}</style></defs><g transform="translate(-269.844 -154.058)"><path class="a" d="M276.738,154.058a6.894,6.894,0,1,0,6.893,6.894A6.9,6.9,0,0,0,276.738,154.058Z"/><path class="b" d="M273.737,158.588a.554.554,0,0,0-.2.039l3.044,2.712a.227.227,0,0,0,.329,0l3.038-2.712a.553.553,0,0,0-.2-.039Zm-.54.469a.468.468,0,0,0-.006.076v3.638a.547.547,0,0,0,.043.21l2.1-2.018-2.137-1.906Zm7.082,0-2.132,1.9,2.1,2.017a.545.545,0,0,0,.039-.207v-3.638a.615.615,0,0,0-.005-.076Zm-2.541,2.27-.469.421a.8.8,0,0,1-1.057,0l-.469-.418-2.069,1.984c.02,0,.042,0,.063,0h6a.572.572,0,0,0,.059,0Z"/></g></svg>