<svg xmlns="http://www.w3.org/2000/svg" width="13.787" height="13.787" viewBox="0 0 13.787 13.787"><defs><style>.a{fill:#202529;}.b{fill:#fff;}</style></defs><g transform="translate(-269.844 -198.69)"><path class="a" d="M276.738,198.69a6.894,6.894,0,1,0,6.893,6.894A6.9,6.9,0,0,0,276.738,198.69Z"/><path class="b" d="M279.9,205.618a3.106,3.106,0,0,0-3.127-3.084,3.256,3.256,0,0,0-.535.045,1.829,1.829,0,0,0-.965-.274,1.8,1.8,0,0,0-1.814,1.789,1.756,1.756,0,0,0,.25.9,3.017,3.017,0,0,0-.064.62,3.105,3.105,0,0,0,3.127,3.083,3.274,3.274,0,0,0,.573-.051,1.831,1.831,0,0,0,.858.212,1.8,1.8,0,0,0,1.813-1.788,1.766,1.766,0,0,0-.188-.794A3.08,3.08,0,0,0,279.9,205.618Z"/><path class="a" d="M278.352,207.082a1.417,1.417,0,0,1-.636.475,2.563,2.563,0,0,1-.977.17,2.413,2.413,0,0,1-1.12-.232,1.456,1.456,0,0,1-.515-.45.973.973,0,0,1-.2-.558.382.382,0,0,1,.131-.29.459.459,0,0,1,.326-.12.423.423,0,0,1,.276.094.726.726,0,0,1,.183.265,1.529,1.529,0,0,0,.179.313.694.694,0,0,0,.263.2,1.1,1.1,0,0,0,.454.08,1.117,1.117,0,0,0,.63-.162.45.45,0,0,0,.231-.385.38.38,0,0,0-.12-.292.863.863,0,0,0-.334-.182c-.142-.043-.335-.091-.574-.14a4.56,4.56,0,0,1-.819-.242,1.349,1.349,0,0,1-.537-.387.952.952,0,0,1-.2-.618A.992.992,0,0,1,275.2,204a1.313,1.313,0,0,1,.608-.416,2.677,2.677,0,0,1,.917-.142,2.51,2.51,0,0,1,.73.1,1.614,1.614,0,0,1,.516.253,1.1,1.1,0,0,1,.3.338.733.733,0,0,1,.1.351.417.417,0,0,1-.128.3.436.436,0,0,1-.321.132.4.4,0,0,1-.269-.083.982.982,0,0,1-.187-.245,1.037,1.037,0,0,0-.281-.343.89.89,0,0,0-.522-.118.986.986,0,0,0-.542.132.353.353,0,0,0-.194.295.268.268,0,0,0,.063.179.551.551,0,0,0,.186.14,1.359,1.359,0,0,0,.252.1c.087.024.232.06.433.1.253.054.485.114.691.179a2.193,2.193,0,0,1,.535.241,1.064,1.064,0,0,1,.353.366,1.094,1.094,0,0,1,.127.544A1.164,1.164,0,0,1,278.352,207.082Z"/></g></svg>