<svg xmlns="http://www.w3.org/2000/svg" width="13.787" height="13.787" viewBox="0 0 13.787 13.787"><defs><style>.a{fill:#202529;}</style></defs><g transform="translate(-269.844 -130.743)"><path class="a" d="M276.738,130.743a6.894,6.894,0,1,0,6.893,6.893A6.9,6.9,0,0,0,276.738,130.743Zm3.788,9.448a2.715,2.715,0,0,1-.508.783c-.828.828-3.048.087-4.877-1.741s-2.569-4.035-1.741-4.877a2.943,2.943,0,0,1,.783-.508.566.566,0,0,1,.668.175l.914,1.161a.568.568,0,0,1-.072.783c-.232.2-.392.349-.436.392-.348.348.16,1.089.929,1.858s1.495,1.292,1.858.929c.043-.044.189-.2.392-.436a.566.566,0,0,1,.783-.072l1.161.914A.516.516,0,0,1,280.526,140.191Z"/></g></svg>