<svg xmlns="http://www.w3.org/2000/svg" width="117.876" height="124.332" viewBox="0 0 117.876 124.332"><defs><style>.a{fill:#03045e;}.a,.b{fill-rule:evenodd;}.b{fill:#d62839;}.c{fill:#212529;}</style></defs><g transform="translate(-77.124 -62.139)"><path class="a" d="M169.42,82.965l-7.743.1-7.124.52-6.606.729-5.991,1.044-5.368,1.353-4.852,1.561L127.5,90.048l-3.717,1.977-3.2,2.086L117.9,96.4l-2.273,2.4-1.651,2.6L112.844,104l-.722,2.6-.31,2.71.31,2.809.619,2.71,1.135,2.709,1.548,2.706,1.963,2.6,2.373,2.6,2.788,2.4,3.2,2.29,3.512,2.188,4.022,1.977,4.233,1.769,4.65,1.564,5.058,1.353,5.265,1.145,5.677.833,5.99.523,6.193.208-14.143,4.374-12.9,3.018-11.565,1.772-10.426.52-9.085-.52-8.053-1.564-6.815-2.394-5.78-3.125-4.75-3.958-3.82-4.374-2.789-5-1.857-5.415-1.032-5.623-.206-5.935.619-5.939,1.341-6.039,2.067-5.935,2.785-5.727,3.3-5.418,4.028-5.1,4.439-4.582,4.955-4.059,5.471-3.333,5.886-2.6,6.3-1.769,6.61-.833,6.914.312,7.126,1.353,7.431,2.709,7.537,3.958,7.64,5.415Z"/><path class="b" d="M144.436,124.1l2.892-.416,2.889-.1H153l2.685.312,2.682.416,2.479.624,2.373.833,2.273.937,2.063,1.148,1.963,1.249,1.754,1.353,1.552,1.46,1.444,1.561,1.133,1.561.929,1.772.726,1.665.413,1.873.206,1.772-.1,1.873-.31,1.876-.726,1.873-1.032,1.873-1.34,1.772-1.655,1.769-1.96,1.769-2.479,1.668-2.682,1.561-3.2,1.457-3.614,1.461-3.923,1.247-4.439,1.145-4.852,1.041,8.878.1,7.847-.52,6.713-1.041,5.882-1.561,4.956-2.084,4.026-2.394,3.2-2.709,2.476-3.018,1.757-3.333,1.032-3.437.516-3.645-.1-3.643-.722-3.749-1.135-3.75-1.55-3.645-1.96-3.538-2.273-3.333-2.476-3.125-2.788-2.81-3-2.6-3.094-2.186-3.2-1.669-3.2-1.247-3.3-.833-3.1-.1-3.1.52-2.892,1.143-2.682,1.878-2.376,2.6-2.167,3.541-1.757,4.374Z"/><path class="c" d="M88.648,183.742a3.709,3.709,0,0,1-3.755,2.729,5.906,5.906,0,0,1-4.688-2.146,8.363,8.363,0,0,1-1.913-5.667,8.185,8.185,0,0,1,2.053-5.831,6.673,6.673,0,0,1,5.107-2.122,6.455,6.455,0,0,1,3.557.921,6.052,6.052,0,0,1,2.251,2.9l-2.822.652a3.624,3.624,0,0,0-3.125-1.982,3.5,3.5,0,0,0-2.869,1.469,6.221,6.221,0,0,0-1.19,3.989,6.335,6.335,0,0,0,1.073,3.825,3.51,3.51,0,0,0,5.248.489,3.622,3.622,0,0,0,.979-2.682V180.2l-3.4-.07v-1.773H91.19v7.79H88.951Z"/><path class="c" d="M96.764,171.008h9.749v2.379h-7v3.988h6.554v2.379H99.516v3.988h7v2.4H96.764Z"/><path class="c" d="M123.329,175.649a4.277,4.277,0,0,1-.91,2.752,4.735,4.735,0,0,1-2.612,1.586l4.058,6.157h-3.592l-3.335-5.9h-2.1v5.9h-2.752V171.008h5.6a6.206,6.206,0,0,1,4.174,1.282A4.16,4.16,0,0,1,123.329,175.649Zm-5.9,2.752a3.332,3.332,0,0,0,2.286-.688,2.32,2.32,0,0,0,.769-1.819,2.442,2.442,0,0,0-.7-1.82,2.884,2.884,0,0,0-2.1-.687h-2.846V178.4Z"/><path class="c" d="M132.238,171.008h3.452l4.968,15.136h-2.916l-1.049-3.265h-5.621L130,186.144h-2.915Zm-.466,9.795h4.245l-2.1-6.507Z"/><path class="c" d="M148.914,171.008l4.152,9,4.151-9h3.8v15.136h-2.776v-11.5l-4.291,9.842h-1.8l-4.431-10.169v11.825h-2.753V171.008Z"/><path class="c" d="M170.488,171.008h3.451l4.968,15.136h-2.915l-1.05-3.265h-5.62l-1.073,3.265h-2.916Zm-.467,9.795h4.245l-2.1-6.507Z"/><path class="c" d="M194.464,175.649a4.283,4.283,0,0,1-.91,2.752,4.735,4.735,0,0,1-2.612,1.586L195,186.144h-3.592l-3.335-5.9h-2.1v5.9h-2.752V171.008h5.6a6.209,6.209,0,0,1,4.175,1.282A4.16,4.16,0,0,1,194.464,175.649Zm-5.9,2.752a3.331,3.331,0,0,0,2.285-.688,2.318,2.318,0,0,0,.77-1.819,2.439,2.439,0,0,0-.7-1.82,2.882,2.882,0,0,0-2.1-.687h-2.845V178.4Z"/></g></svg>